<svg width="69" height="39" viewBox="0 0 69 39" fill="none" xmlns="http://www.w3.org/2000/svg">
<path d="M59.863 10.4691H58L60.8387 2.02072H63.0792L65.9139 10.4691H64.0509L61.9911 3.95132H61.9269L59.863 10.4691ZM59.7466 7.14836H64.1473V8.54268H59.7466V7.14836Z" fill="black"/>
<path d="M68.6423 2.02072V10.4691H66.9037V2.02072H68.6423Z" fill="black"/>
<path d="M16.9176 9.65625H13.1847C13.1165 9.1733 12.9773 8.74432 12.767 8.36932C12.5568 7.98864 12.2869 7.66477 11.9574 7.39773C11.6278 7.13068 11.2472 6.92614 10.8153 6.78409C10.3892 6.64205 9.92614 6.57102 9.42614 6.57102C8.52273 6.57102 7.7358 6.79545 7.06534 7.24432C6.39489 7.6875 5.875 8.33523 5.50568 9.1875C5.13636 10.0341 4.9517 11.0625 4.9517 12.2727C4.9517 13.517 5.13636 14.5625 5.50568 15.4091C5.88068 16.2557 6.40341 16.8949 7.07386 17.3267C7.74432 17.7585 8.51989 17.9744 9.40057 17.9744C9.89489 17.9744 10.3523 17.9091 10.7727 17.7784C11.1989 17.6477 11.5767 17.4574 11.9062 17.2074C12.2358 16.9517 12.5085 16.642 12.7244 16.2784C12.946 15.9148 13.0994 15.5 13.1847 15.0341L16.9176 15.0511C16.821 15.8523 16.5795 16.625 16.1932 17.3693C15.8125 18.108 15.2983 18.7699 14.6506 19.3551C14.0085 19.9347 13.2415 20.3949 12.3494 20.7358C11.4631 21.071 10.4602 21.2386 9.34091 21.2386C7.78409 21.2386 6.39205 20.8864 5.16477 20.1818C3.94318 19.4773 2.97727 18.4574 2.26705 17.1222C1.5625 15.7869 1.21023 14.1705 1.21023 12.2727C1.21023 10.3693 1.56818 8.75 2.28409 7.41477C3 6.07955 3.97159 5.0625 5.19886 4.36364C6.42614 3.65909 7.80682 3.30682 9.34091 3.30682C10.3523 3.30682 11.2898 3.44886 12.1534 3.73295C13.0227 4.01705 13.7926 4.43182 14.4631 4.97727C15.1335 5.51704 15.679 6.17898 16.0994 6.96307C16.5256 7.74716 16.7983 8.64489 16.9176 9.65625ZM19.5639 21V3.54545H26.4503C27.7685 3.54545 28.8935 3.78125 29.8253 4.25284C30.7628 4.71875 31.4759 5.38068 31.9645 6.23864C32.4588 7.09091 32.706 8.09375 32.706 9.24716C32.706 10.4062 32.456 11.4034 31.956 12.2386C31.456 13.0682 30.7315 13.7045 29.7827 14.1477C28.8395 14.5909 27.6974 14.8125 26.3565 14.8125H21.7457V11.8466H25.7599C26.4645 11.8466 27.0497 11.75 27.5156 11.5568C27.9815 11.3636 28.3281 11.0739 28.5554 10.6875C28.7884 10.3011 28.9048 9.82102 28.9048 9.24716C28.9048 8.66761 28.7884 8.17898 28.5554 7.78125C28.3281 7.38352 27.9787 7.08239 27.5071 6.87784C27.0412 6.66761 26.4531 6.5625 25.7429 6.5625H23.2543V21H19.5639ZM28.9901 13.0568L33.3281 21H29.2543L25.0099 13.0568H28.9901ZM35.3139 3.54545H39.8651L44.6719 15.2727H44.8764L49.6832 3.54545H54.2344V21H50.6548V9.6392H50.5099L45.9929 20.9148H43.5554L39.0384 9.59659H38.8935V21H35.3139V3.54545Z" fill="black"/>
<path d="M4.96 32.7358C5.35333 32.8098 5.67667 33.0086 5.93 33.3319C6.18333 33.6552 6.31 34.0257 6.31 34.4433C6.31 34.8205 6.21667 35.1539 6.03 35.4435C5.85 35.7264 5.58667 35.9487 5.24 36.1104C4.89333 36.272 4.48333 36.3529 4.01 36.3529H1V29.3005H3.88C4.35333 29.3005 4.76 29.378 5.1 29.5329C5.44667 29.6878 5.70667 29.9034 5.88 30.1795C6.06 30.4557 6.15 30.7689 6.15 31.1192C6.15 31.5301 6.04 31.8736 5.82 32.1497C5.60667 32.4259 5.32 32.6212 4.96 32.7358ZM2.4 32.2104H3.68C4.01333 32.2104 4.27 32.1363 4.45 31.9881C4.63 31.8332 4.72 31.6143 4.72 31.3314C4.72 31.0484 4.63 30.8295 4.45 30.6746C4.27 30.5197 4.01333 30.4422 3.68 30.4422H2.4V32.2104ZM3.81 35.201C4.15 35.201 4.41333 35.1202 4.6 34.9586C4.79333 34.7969 4.89 34.5679 4.89 34.2715C4.89 33.9684 4.79 33.7326 4.59 33.5643C4.39 33.3891 4.12 33.3016 3.78 33.3016H2.4V35.201H3.81Z" fill="black"/>
<path d="M12.7258 30.7554L9.29578 39H7.80578L9.00578 36.2114L6.78578 30.7554H8.35578L9.78578 34.6655L11.2358 30.7554H12.7258Z" fill="black"/>
<path d="M23.4188 36.8257V31.9404L20.8635 36.8257H19.0799L16.5246 31.9404V36.8257H14.6658V29.8701H17.191L19.9718 35.1349L22.7527 29.8701H25.268V36.8257H23.4191H23.4188Z" fill="black"/>
<path d="M36.3306 33.3526C36.3306 33.95 36.222 34.4773 36.0048 34.9346C35.7876 35.392 35.477 35.7743 35.0729 36.0813C34.6688 36.3885 34.1784 36.6205 33.6024 36.7774C33.0263 36.9343 32.379 37.0128 31.6609 37.0128C30.9428 37.0128 30.2937 36.9343 29.7142 36.7774C29.1347 36.6205 28.6412 36.3885 28.2338 36.0813C27.8263 35.7743 27.5123 35.392 27.2917 34.9346C27.0711 34.4773 26.9609 33.95 26.9609 33.3526C26.9609 32.7552 27.0711 32.2279 27.2917 31.7705C27.5123 31.3132 27.826 30.9312 28.2338 30.6239C28.6412 30.3169 29.1347 30.0847 29.7142 29.9278C30.2937 29.7708 30.9425 29.6924 31.6609 29.6924C32.3793 29.6924 33.0263 29.7708 33.6024 29.9278C34.1784 30.0847 34.6688 30.3166 35.0729 30.6239C35.477 30.9312 35.7876 31.3132 36.0048 31.7705C36.222 32.2279 36.3306 32.7552 36.3306 33.3526ZM34.4516 33.3526C34.4516 33.0928 34.4108 32.8337 34.3288 32.5755C34.2468 32.3173 34.1017 32.0853 33.8929 31.8793C33.684 31.6736 33.3994 31.5064 33.0386 31.3782C32.6779 31.25 32.2184 31.186 31.6609 31.186C31.2869 31.186 30.9577 31.2157 30.674 31.2744C30.3899 31.3335 30.1446 31.4154 29.9373 31.5198C29.73 31.6245 29.5564 31.7468 29.4163 31.8868C29.2761 32.0269 29.1641 32.1772 29.0806 32.3373C28.997 32.4976 28.9376 32.6646 28.9027 32.8384C28.8677 33.0122 28.8501 33.1835 28.8501 33.3523C28.8501 33.5211 28.8677 33.6983 28.9027 33.8737C28.9376 34.0491 28.997 34.2172 29.0806 34.3773C29.1641 34.5376 29.2761 34.6871 29.4163 34.8252C29.5564 34.9637 29.7303 35.0844 29.9373 35.1872C30.1443 35.2901 30.3899 35.3713 30.674 35.4301C30.958 35.4892 31.2869 35.5186 31.6609 35.5186C32.2188 35.5186 32.6779 35.4545 33.0386 35.3263C33.3994 35.1982 33.684 35.0309 33.8929 34.8252C34.1017 34.6195 34.2468 34.3873 34.3288 34.1291C34.4105 33.8709 34.4516 33.612 34.4516 33.352V33.3526Z" fill="black"/>
<path d="M46.4573 33.3424C46.4573 33.7879 46.4087 34.1836 46.3119 34.5297C46.215 34.8757 46.0789 35.1768 45.9035 35.4334C45.728 35.6901 45.5177 35.9076 45.272 36.0864C45.0263 36.2652 44.7535 36.4087 44.4527 36.5169C44.152 36.625 43.8281 36.7035 43.4806 36.7523C43.1332 36.8013 42.7709 36.8257 42.3934 36.8257H38.0242V29.8701H42.3832C42.7607 29.8701 43.123 29.8945 43.4704 29.9436C43.8179 29.9926 44.1427 30.0711 44.445 30.1789C44.7473 30.2871 45.022 30.4297 45.2692 30.6066C45.5164 30.7838 45.7277 31.0014 45.9032 31.2596C46.0786 31.5178 46.2147 31.8192 46.3116 32.1633C46.4084 32.5075 46.457 32.9007 46.457 33.3428L46.4573 33.3424ZM44.5833 33.3424C44.5833 33.0083 44.5406 32.7182 44.4555 32.4719C44.3704 32.2255 44.2334 32.022 44.0446 31.862C43.8559 31.7016 43.6096 31.5819 43.3055 31.5025C43.0014 31.4231 42.6307 31.3834 42.1932 31.3834H39.8833V35.3118H42.1932C42.6307 35.3118 43.0017 35.2721 43.3055 35.1927C43.6093 35.1133 43.8559 34.992 44.0446 34.8282C44.2334 34.6644 44.3704 34.4597 44.4555 34.213C44.5406 33.9667 44.5833 33.6763 44.5833 33.3424Z" fill="black"/>
<path d="M50.0092 33.8492C50.0092 34.1396 50.0358 34.3765 50.0894 34.5603C50.1429 34.7444 50.2295 34.8901 50.3499 34.9983C50.4702 35.1064 50.6261 35.1805 50.8183 35.2212C51.0104 35.2618 51.2468 35.2818 51.5274 35.2818H55.0548V36.8257H51.1465C50.6054 36.8257 50.1454 36.781 49.766 36.6916C49.387 36.6022 49.077 36.4637 48.8366 36.2765C48.5962 36.0892 48.4214 35.852 48.3131 35.5653C48.2045 35.2784 48.1504 34.9376 48.1504 34.5428V29.8701H50.0092V33.8492Z" fill="black"/>
<path d="M56.5427 36.8257V29.8701H58.4016V36.8257H56.5427Z" fill="black"/>
<path d="M65.11 33.2568L68.3769 36.8257H66.1471L63.9925 34.4819L61.8481 36.8257H59.6235L62.8855 33.2568L59.7841 29.8701H62.0139L63.9931 32.047L65.9822 29.8701H68.212L65.1106 33.2568H65.11Z" fill="black"/>
<path d="M59.863 10.4691H58L60.8387 2.02072H63.0792L65.9139 10.4691H64.0509L61.9911 3.95132H61.9269L59.863 10.4691ZM59.7466 7.14836H64.1473V8.54268H59.7466V7.14836Z" fill="black"/>
<path d="M68.6423 2.02072V10.4691H66.9037V2.02072H68.6423Z" fill="black"/>
<path d="M16.9176 9.65625H13.1847C13.1165 9.1733 12.9773 8.74432 12.767 8.36932C12.5568 7.98864 12.2869 7.66477 11.9574 7.39773C11.6278 7.13068 11.2472 6.92614 10.8153 6.78409C10.3892 6.64205 9.92614 6.57102 9.42614 6.57102C8.52273 6.57102 7.7358 6.79545 7.06534 7.24432C6.39489 7.6875 5.875 8.33523 5.50568 9.1875C5.13636 10.0341 4.9517 11.0625 4.9517 12.2727C4.9517 13.517 5.13636 14.5625 5.50568 15.4091C5.88068 16.2557 6.40341 16.8949 7.07386 17.3267C7.74432 17.7585 8.51989 17.9744 9.40057 17.9744C9.89489 17.9744 10.3523 17.9091 10.7727 17.7784C11.1989 17.6477 11.5767 17.4574 11.9062 17.2074C12.2358 16.9517 12.5085 16.642 12.7244 16.2784C12.946 15.9148 13.0994 15.5 13.1847 15.0341L16.9176 15.0511C16.821 15.8523 16.5795 16.625 16.1932 17.3693C15.8125 18.108 15.2983 18.7699 14.6506 19.3551C14.0085 19.9347 13.2415 20.3949 12.3494 20.7358C11.4631 21.071 10.4602 21.2386 9.34091 21.2386C7.78409 21.2386 6.39205 20.8864 5.16477 20.1818C3.94318 19.4773 2.97727 18.4574 2.26705 17.1222C1.5625 15.7869 1.21023 14.1705 1.21023 12.2727C1.21023 10.3693 1.56818 8.75 2.28409 7.41477C3 6.07955 3.97159 5.0625 5.19886 4.36364C6.42614 3.65909 7.80682 3.30682 9.34091 3.30682C10.3523 3.30682 11.2898 3.44886 12.1534 3.73295C13.0227 4.01705 13.7926 4.43182 14.4631 4.97727C15.1335 5.51704 15.679 6.17898 16.0994 6.96307C16.5256 7.74716 16.7983 8.64489 16.9176 9.65625ZM19.5639 21V3.54545H26.4503C27.7685 3.54545 28.8935 3.78125 29.8253 4.25284C30.7628 4.71875 31.4759 5.38068 31.9645 6.23864C32.4588 7.09091 32.706 8.09375 32.706 9.24716C32.706 10.4062 32.456 11.4034 31.956 12.2386C31.456 13.0682 30.7315 13.7045 29.7827 14.1477C28.8395 14.5909 27.6974 14.8125 26.3565 14.8125H21.7457V11.8466H25.7599C26.4645 11.8466 27.0497 11.75 27.5156 11.5568C27.9815 11.3636 28.3281 11.0739 28.5554 10.6875C28.7884 10.3011 28.9048 9.82102 28.9048 9.24716C28.9048 8.66761 28.7884 8.17898 28.5554 7.78125C28.3281 7.38352 27.9787 7.08239 27.5071 6.87784C27.0412 6.66761 26.4531 6.5625 25.7429 6.5625H23.2543V21H19.5639ZM28.9901 13.0568L33.3281 21H29.2543L25.0099 13.0568H28.9901ZM35.3139 3.54545H39.8651L44.6719 15.2727H44.8764L49.6832 3.54545H54.2344V21H50.6548V9.6392H50.5099L45.9929 20.9148H43.5554L39.0384 9.59659H38.8935V21H35.3139V3.54545Z" fill="black"/>
<path d="M4.96 32.7358C5.35333 32.8098 5.67667 33.0086 5.93 33.3319C6.18333 33.6552 6.31 34.0257 6.31 34.4433C6.31 34.8205 6.21667 35.1539 6.03 35.4435C5.85 35.7264 5.58667 35.9487 5.24 36.1104C4.89333 36.272 4.48333 36.3529 4.01 36.3529H1V29.3005H3.88C4.35333 29.3005 4.76 29.378 5.1 29.5329C5.44667 29.6878 5.70667 29.9034 5.88 30.1795C6.06 30.4557 6.15 30.7689 6.15 31.1192C6.15 31.5301 6.04 31.8736 5.82 32.1497C5.60667 32.4259 5.32 32.6212 4.96 32.7358ZM2.4 32.2104H3.68C4.01333 32.2104 4.27 32.1363 4.45 31.9881C4.63 31.8332 4.72 31.6143 4.72 31.3314C4.72 31.0484 4.63 30.8295 4.45 30.6746C4.27 30.5197 4.01333 30.4422 3.68 30.4422H2.4V32.2104ZM3.81 35.201C4.15 35.201 4.41333 35.1202 4.6 34.9586C4.79333 34.7969 4.89 34.5679 4.89 34.2715C4.89 33.9684 4.79 33.7326 4.59 33.5643C4.39 33.3891 4.12 33.3016 3.78 33.3016H2.4V35.201H3.81Z" fill="black"/>
<path d="M12.7258 30.7554L9.29578 39H7.80578L9.00578 36.2114L6.78578 30.7554H8.35578L9.78578 34.6655L11.2358 30.7554H12.7258Z" fill="black"/>
<path d="M23.4188 36.8257V31.9404L20.8635 36.8257H19.0799L16.5246 31.9404V36.8257H14.6658V29.8701H17.191L19.9718 35.1349L22.7527 29.8701H25.268V36.8257H23.4191H23.4188Z" fill="black"/>
<path d="M36.3306 33.3526C36.3306 33.95 36.222 34.4773 36.0048 34.9346C35.7876 35.392 35.477 35.7743 35.0729 36.0813C34.6688 36.3885 34.1784 36.6205 33.6024 36.7774C33.0263 36.9343 32.379 37.0128 31.6609 37.0128C30.9428 37.0128 30.2937 36.9343 29.7142 36.7774C29.1347 36.6205 28.6412 36.3885 28.2338 36.0813C27.8263 35.7743 27.5123 35.392 27.2917 34.9346C27.0711 34.4773 26.9609 33.95 26.9609 33.3526C26.9609 32.7552 27.0711 32.2279 27.2917 31.7705C27.5123 31.3132 27.826 30.9312 28.2338 30.6239C28.6412 30.3169 29.1347 30.0847 29.7142 29.9278C30.2937 29.7708 30.9425 29.6924 31.6609 29.6924C32.3793 29.6924 33.0263 29.7708 33.6024 29.9278C34.1784 30.0847 34.6688 30.3166 35.0729 30.6239C35.477 30.9312 35.7876 31.3132 36.0048 31.7705C36.222 32.2279 36.3306 32.7552 36.3306 33.3526ZM34.4516 33.3526C34.4516 33.0928 34.4108 32.8337 34.3288 32.5755C34.2468 32.3173 34.1017 32.0853 33.8929 31.8793C33.684 31.6736 33.3994 31.5064 33.0386 31.3782C32.6779 31.25 32.2184 31.186 31.6609 31.186C31.2869 31.186 30.9577 31.2157 30.674 31.2744C30.3899 31.3335 30.1446 31.4154 29.9373 31.5198C29.73 31.6245 29.5564 31.7468 29.4163 31.8868C29.2761 32.0269 29.1641 32.1772 29.0806 32.3373C28.997 32.4976 28.9376 32.6646 28.9027 32.8384C28.8677 33.0122 28.8501 33.1835 28.8501 33.3523C28.8501 33.5211 28.8677 33.6983 28.9027 33.8737C28.9376 34.0491 28.997 34.2172 29.0806 34.3773C29.1641 34.5376 29.2761 34.6871 29.4163 34.8252C29.5564 34.9637 29.7303 35.0844 29.9373 35.1872C30.1443 35.2901 30.3899 35.3713 30.674 35.4301C30.958 35.4892 31.2869 35.5186 31.6609 35.5186C32.2188 35.5186 32.6779 35.4545 33.0386 35.3263C33.3994 35.1982 33.684 35.0309 33.8929 34.8252C34.1017 34.6195 34.2468 34.3873 34.3288 34.1291C34.4105 33.8709 34.4516 33.612 34.4516 33.352V33.3526Z" fill="black"/>
<path d="M46.4573 33.3424C46.4573 33.7879 46.4087 34.1836 46.3119 34.5297C46.215 34.8757 46.0789 35.1768 45.9035 35.4334C45.728 35.6901 45.5177 35.9076 45.272 36.0864C45.0263 36.2652 44.7535 36.4087 44.4527 36.5169C44.152 36.625 43.8281 36.7035 43.4806 36.7523C43.1332 36.8013 42.7709 36.8257 42.3934 36.8257H38.0242V29.8701H42.3832C42.7607 29.8701 43.123 29.8945 43.4704 29.9436C43.8179 29.9926 44.1427 30.0711 44.445 30.1789C44.7473 30.2871 45.022 30.4297 45.2692 30.6066C45.5164 30.7838 45.7277 31.0014 45.9032 31.2596C46.0786 31.5178 46.2147 31.8192 46.3116 32.1633C46.4084 32.5075 46.457 32.9007 46.457 33.3428L46.4573 33.3424ZM44.5833 33.3424C44.5833 33.0083 44.5406 32.7182 44.4555 32.4719C44.3704 32.2255 44.2334 32.022 44.0446 31.862C43.8559 31.7016 43.6096 31.5819 43.3055 31.5025C43.0014 31.4231 42.6307 31.3834 42.1932 31.3834H39.8833V35.3118H42.1932C42.6307 35.3118 43.0017 35.2721 43.3055 35.1927C43.6093 35.1133 43.8559 34.992 44.0446 34.8282C44.2334 34.6644 44.3704 34.4597 44.4555 34.213C44.5406 33.9667 44.5833 33.6763 44.5833 33.3424Z" fill="black"/>
<path d="M50.0092 33.8492C50.0092 34.1396 50.0358 34.3765 50.0894 34.5603C50.1429 34.7444 50.2295 34.8901 50.3499 34.9983C50.4702 35.1064 50.6261 35.1805 50.8183 35.2212C51.0104 35.2618 51.2468 35.2818 51.5274 35.2818H55.0548V36.8257H51.1465C50.6054 36.8257 50.1454 36.781 49.766 36.6916C49.387 36.6022 49.077 36.4637 48.8366 36.2765C48.5962 36.0892 48.4214 35.852 48.3131 35.5653C48.2045 35.2784 48.1504 34.9376 48.1504 34.5428V29.8701H50.0092V33.8492Z" fill="black"/>
<path d="M56.5427 36.8257V29.8701H58.4016V36.8257H56.5427Z" fill="black"/>
<path d="M65.11 33.2568L68.3769 36.8257H66.1471L63.9925 34.4819L61.8481 36.8257H59.6235L62.8855 33.2568L59.7841 29.8701H62.0139L63.9931 32.047L65.9822 29.8701H68.212L65.1106 33.2568H65.11Z" fill="black"/>
<path d="M59.863 10.4691H58L60.8387 2.02072H63.0792L65.9139 10.4691H64.0509L61.9911 3.95132H61.9269L59.863 10.4691ZM59.7466 7.14836H64.1473V8.54268H59.7466V7.14836Z" fill="black"/>
<path d="M68.6423 2.02072V10.4691H66.9037V2.02072H68.6423Z" fill="black"/>
<path d="M16.9176 9.65625H13.1847C13.1165 9.1733 12.9773 8.74432 12.767 8.36932C12.5568 7.98864 12.2869 7.66477 11.9574 7.39773C11.6278 7.13068 11.2472 6.92614 10.8153 6.78409C10.3892 6.64205 9.92614 6.57102 9.42614 6.57102C8.52273 6.57102 7.7358 6.79545 7.06534 7.24432C6.39489 7.6875 5.875 8.33523 5.50568 9.1875C5.13636 10.0341 4.9517 11.0625 4.9517 12.2727C4.9517 13.517 5.13636 14.5625 5.50568 15.4091C5.88068 16.2557 6.40341 16.8949 7.07386 17.3267C7.74432 17.7585 8.51989 17.9744 9.40057 17.9744C9.89489 17.9744 10.3523 17.9091 10.7727 17.7784C11.1989 17.6477 11.5767 17.4574 11.9062 17.2074C12.2358 16.9517 12.5085 16.642 12.7244 16.2784C12.946 15.9148 13.0994 15.5 13.1847 15.0341L16.9176 15.0511C16.821 15.8523 16.5795 16.625 16.1932 17.3693C15.8125 18.108 15.2983 18.7699 14.6506 19.3551C14.0085 19.9347 13.2415 20.3949 12.3494 20.7358C11.4631 21.071 10.4602 21.2386 9.34091 21.2386C7.78409 21.2386 6.39205 20.8864 5.16477 20.1818C3.94318 19.4773 2.97727 18.4574 2.26705 17.1222C1.5625 15.7869 1.21023 14.1705 1.21023 12.2727C1.21023 10.3693 1.56818 8.75 2.28409 7.41477C3 6.07955 3.97159 5.0625 5.19886 4.36364C6.42614 3.65909 7.80682 3.30682 9.34091 3.30682C10.3523 3.30682 11.2898 3.44886 12.1534 3.73295C13.0227 4.01705 13.7926 4.43182 14.4631 4.97727C15.1335 5.51704 15.679 6.17898 16.0994 6.96307C16.5256 7.74716 16.7983 8.64489 16.9176 9.65625ZM19.5639 21V3.54545H26.4503C27.7685 3.54545 28.8935 3.78125 29.8253 4.25284C30.7628 4.71875 31.4759 5.38068 31.9645 6.23864C32.4588 7.09091 32.706 8.09375 32.706 9.24716C32.706 10.4062 32.456 11.4034 31.956 12.2386C31.456 13.0682 30.7315 13.7045 29.7827 14.1477C28.8395 14.5909 27.6974 14.8125 26.3565 14.8125H21.7457V11.8466H25.7599C26.4645 11.8466 27.0497 11.75 27.5156 11.5568C27.9815 11.3636 28.3281 11.0739 28.5554 10.6875C28.7884 10.3011 28.9048 9.82102 28.9048 9.24716C28.9048 8.66761 28.7884 8.17898 28.5554 7.78125C28.3281 7.38352 27.9787 7.08239 27.5071 6.87784C27.0412 6.66761 26.4531 6.5625 25.7429 6.5625H23.2543V21H19.5639ZM28.9901 13.0568L33.3281 21H29.2543L25.0099 13.0568H28.9901ZM35.3139 3.54545H39.8651L44.6719 15.2727H44.8764L49.6832 3.54545H54.2344V21H50.6548V9.6392H50.5099L45.9929 20.9148H43.5554L39.0384 9.59659H38.8935V21H35.3139V3.54545Z" fill="black"/>
<path d="M4.96 32.7358C5.35333 32.8098 5.67667 33.0086 5.93 33.3319C6.18333 33.6552 6.31 34.0257 6.31 34.4433C6.31 34.8205 6.21667 35.1539 6.03 35.4435C5.85 35.7264 5.58667 35.9487 5.24 36.1104C4.89333 36.272 4.48333 36.3529 4.01 36.3529H1V29.3005H3.88C4.35333 29.3005 4.76 29.378 5.1 29.5329C5.44667 29.6878 5.70667 29.9034 5.88 30.1795C6.06 30.4557 6.15 30.7689 6.15 31.1192C6.15 31.5301 6.04 31.8736 5.82 32.1497C5.60667 32.4259 5.32 32.6212 4.96 32.7358ZM2.4 32.2104H3.68C4.01333 32.2104 4.27 32.1363 4.45 31.9881C4.63 31.8332 4.72 31.6143 4.72 31.3314C4.72 31.0484 4.63 30.8295 4.45 30.6746C4.27 30.5197 4.01333 30.4422 3.68 30.4422H2.4V32.2104ZM3.81 35.201C4.15 35.201 4.41333 35.1202 4.6 34.9586C4.79333 34.7969 4.89 34.5679 4.89 34.2715C4.89 33.9684 4.79 33.7326 4.59 33.5643C4.39 33.3891 4.12 33.3016 3.78 33.3016H2.4V35.201H3.81Z" fill="black"/>
<path d="M12.7258 30.7554L9.29578 39H7.80578L9.00578 36.2114L6.78578 30.7554H8.35578L9.78578 34.6655L11.2358 30.7554H12.7258Z" fill="black"/>
<path d="M23.4188 36.8257V31.9404L20.8635 36.8257H19.0799L16.5246 31.9404V36.8257H14.6658V29.8701H17.191L19.9718 35.1349L22.7527 29.8701H25.268V36.8257H23.4191H23.4188Z" fill="black"/>
<path d="M36.3306 33.3526C36.3306 33.95 36.222 34.4773 36.0048 34.9346C35.7876 35.392 35.477 35.7743 35.0729 36.0813C34.6688 36.3885 34.1784 36.6205 33.6024 36.7774C33.0263 36.9343 32.379 37.0128 31.6609 37.0128C30.9428 37.0128 30.2937 36.9343 29.7142 36.7774C29.1347 36.6205 28.6412 36.3885 28.2338 36.0813C27.8263 35.7743 27.5123 35.392 27.2917 34.9346C27.0711 34.4773 26.9609 33.95 26.9609 33.3526C26.9609 32.7552 27.0711 32.2279 27.2917 31.7705C27.5123 31.3132 27.826 30.9312 28.2338 30.6239C28.6412 30.3169 29.1347 30.0847 29.7142 29.9278C30.2937 29.7708 30.9425 29.6924 31.6609 29.6924C32.3793 29.6924 33.0263 29.7708 33.6024 29.9278C34.1784 30.0847 34.6688 30.3166 35.0729 30.6239C35.477 30.9312 35.7876 31.3132 36.0048 31.7705C36.222 32.2279 36.3306 32.7552 36.3306 33.3526ZM34.4516 33.3526C34.4516 33.0928 34.4108 32.8337 34.3288 32.5755C34.2468 32.3173 34.1017 32.0853 33.8929 31.8793C33.684 31.6736 33.3994 31.5064 33.0386 31.3782C32.6779 31.25 32.2184 31.186 31.6609 31.186C31.2869 31.186 30.9577 31.2157 30.674 31.2744C30.3899 31.3335 30.1446 31.4154 29.9373 31.5198C29.73 31.6245 29.5564 31.7468 29.4163 31.8868C29.2761 32.0269 29.1641 32.1772 29.0806 32.3373C28.997 32.4976 28.9376 32.6646 28.9027 32.8384C28.8677 33.0122 28.8501 33.1835 28.8501 33.3523C28.8501 33.5211 28.8677 33.6983 28.9027 33.8737C28.9376 34.0491 28.997 34.2172 29.0806 34.3773C29.1641 34.5376 29.2761 34.6871 29.4163 34.8252C29.5564 34.9637 29.7303 35.0844 29.9373 35.1872C30.1443 35.2901 30.3899 35.3713 30.674 35.4301C30.958 35.4892 31.2869 35.5186 31.6609 35.5186C32.2188 35.5186 32.6779 35.4545 33.0386 35.3263C33.3994 35.1982 33.684 35.0309 33.8929 34.8252C34.1017 34.6195 34.2468 34.3873 34.3288 34.1291C34.4105 33.8709 34.4516 33.612 34.4516 33.352V33.3526Z" fill="black"/>
<path d="M46.4573 33.3424C46.4573 33.7879 46.4087 34.1836 46.3119 34.5297C46.215 34.8757 46.0789 35.1768 45.9035 35.4334C45.728 35.6901 45.5177 35.9076 45.272 36.0864C45.0263 36.2652 44.7535 36.4087 44.4527 36.5169C44.152 36.625 43.8281 36.7035 43.4806 36.7523C43.1332 36.8013 42.7709 36.8257 42.3934 36.8257H38.0242V29.8701H42.3832C42.7607 29.8701 43.123 29.8945 43.4704 29.9436C43.8179 29.9926 44.1427 30.0711 44.445 30.1789C44.7473 30.2871 45.022 30.4297 45.2692 30.6066C45.5164 30.7838 45.7277 31.0014 45.9032 31.2596C46.0786 31.5178 46.2147 31.8192 46.3116 32.1633C46.4084 32.5075 46.457 32.9007 46.457 33.3428L46.4573 33.3424ZM44.5833 33.3424C44.5833 33.0083 44.5406 32.7182 44.4555 32.4719C44.3704 32.2255 44.2334 32.022 44.0446 31.862C43.8559 31.7016 43.6096 31.5819 43.3055 31.5025C43.0014 31.4231 42.6307 31.3834 42.1932 31.3834H39.8833V35.3118H42.1932C42.6307 35.3118 43.0017 35.2721 43.3055 35.1927C43.6093 35.1133 43.8559 34.992 44.0446 34.8282C44.2334 34.6644 44.3704 34.4597 44.4555 34.213C44.5406 33.9667 44.5833 33.6763 44.5833 33.3424Z" fill="black"/>
<path d="M50.0092 33.8492C50.0092 34.1396 50.0358 34.3765 50.0894 34.5603C50.1429 34.7444 50.2295 34.8901 50.3499 34.9983C50.4702 35.1064 50.6261 35.1805 50.8183 35.2212C51.0104 35.2618 51.2468 35.2818 51.5274 35.2818H55.0548V36.8257H51.1465C50.6054 36.8257 50.1454 36.781 49.766 36.6916C49.387 36.6022 49.077 36.4637 48.8366 36.2765C48.5962 36.0892 48.4214 35.852 48.3131 35.5653C48.2045 35.2784 48.1504 34.9376 48.1504 34.5428V29.8701H50.0092V33.8492Z" fill="black"/>
<path d="M56.5427 36.8257V29.8701H58.4016V36.8257H56.5427Z" fill="black"/>
<path d="M65.11 33.2568L68.3769 36.8257H66.1471L63.9925 34.4819L61.8481 36.8257H59.6235L62.8855 33.2568L59.7841 29.8701H62.0139L63.9931 32.047L65.9822 29.8701H68.212L65.1106 33.2568H65.11Z" fill="black"/>
<path d="M59.863 10.4691H58L60.8387 2.02072H63.0792L65.9139 10.4691H64.0509L61.9911 3.95132H61.9269L59.863 10.4691ZM59.7466 7.14836H64.1473V8.54268H59.7466V7.14836Z" fill="black"/>
<path d="M68.6423 2.02072V10.4691H66.9037V2.02072H68.6423Z" fill="black"/>
<path d="M16.9176 9.65625H13.1847C13.1165 9.1733 12.9773 8.74432 12.767 8.36932C12.5568 7.98864 12.2869 7.66477 11.9574 7.39773C11.6278 7.13068 11.2472 6.92614 10.8153 6.78409C10.3892 6.64205 9.92614 6.57102 9.42614 6.57102C8.52273 6.57102 7.7358 6.79545 7.06534 7.24432C6.39489 7.6875 5.875 8.33523 5.50568 9.1875C5.13636 10.0341 4.9517 11.0625 4.9517 12.2727C4.9517 13.517 5.13636 14.5625 5.50568 15.4091C5.88068 16.2557 6.40341 16.8949 7.07386 17.3267C7.74432 17.7585 8.51989 17.9744 9.40057 17.9744C9.89489 17.9744 10.3523 17.9091 10.7727 17.7784C11.1989 17.6477 11.5767 17.4574 11.9062 17.2074C12.2358 16.9517 12.5085 16.642 12.7244 16.2784C12.946 15.9148 13.0994 15.5 13.1847 15.0341L16.9176 15.0511C16.821 15.8523 16.5795 16.625 16.1932 17.3693C15.8125 18.108 15.2983 18.7699 14.6506 19.3551C14.0085 19.9347 13.2415 20.3949 12.3494 20.7358C11.4631 21.071 10.4602 21.2386 9.34091 21.2386C7.78409 21.2386 6.39205 20.8864 5.16477 20.1818C3.94318 19.4773 2.97727 18.4574 2.26705 17.1222C1.5625 15.7869 1.21023 14.1705 1.21023 12.2727C1.21023 10.3693 1.56818 8.75 2.28409 7.41477C3 6.07955 3.97159 5.0625 5.19886 4.36364C6.42614 3.65909 7.80682 3.30682 9.34091 3.30682C10.3523 3.30682 11.2898 3.44886 12.1534 3.73295C13.0227 4.01705 13.7926 4.43182 14.4631 4.97727C15.1335 5.51704 15.679 6.17898 16.0994 6.96307C16.5256 7.74716 16.7983 8.64489 16.9176 9.65625ZM19.5639 21V3.54545H26.4503C27.7685 3.54545 28.8935 3.78125 29.8253 4.25284C30.7628 4.71875 31.4759 5.38068 31.9645 6.23864C32.4588 7.09091 32.706 8.09375 32.706 9.24716C32.706 10.4062 32.456 11.4034 31.956 12.2386C31.456 13.0682 30.7315 13.7045 29.7827 14.1477C28.8395 14.5909 27.6974 14.8125 26.3565 14.8125H21.7457V11.8466H25.7599C26.4645 11.8466 27.0497 11.75 27.5156 11.5568C27.9815 11.3636 28.3281 11.0739 28.5554 10.6875C28.7884 10.3011 28.9048 9.82102 28.9048 9.24716C28.9048 8.66761 28.7884 8.17898 28.5554 7.78125C28.3281 7.38352 27.9787 7.08239 27.5071 6.87784C27.0412 6.66761 26.4531 6.5625 25.7429 6.5625H23.2543V21H19.5639ZM28.9901 13.0568L33.3281 21H29.2543L25.0099 13.0568H28.9901ZM35.3139 3.54545H39.8651L44.6719 15.2727H44.8764L49.6832 3.54545H54.2344V21H50.6548V9.6392H50.5099L45.9929 20.9148H43.5554L39.0384 9.59659H38.8935V21H35.3139V3.54545Z" fill="black"/>
</svg>
